<?xml version="1.0" standalone="no"?>
<!DOCTYPE svg PUBLIC "-//W3C//DTD SVG 20010904//EN"
 "http://www.w3.org/TR/2001/REC-SVG-20010904/DTD/svg10.dtd">
<svg version="1.0" xmlns="http://www.w3.org/2000/svg"
 width="1024.000000pt" height="1024.000000pt" viewBox="0 0 1024.000000 1024.000000"
 preserveAspectRatio="xMidYMid meet">

<g transform="translate(0.000000,1024.000000) scale(0.100000,-0.100000)"
fill="#000000" stroke="none">
<path d="M6190 8111 c-119 -42 -231 -128 -340 -260 -218 -263 -642 -1008 -922
-1622 l-35 -76 -194 -96 c-262 -130 -599 -268 -599 -247 0 5 83 188 185 408
319 692 386 868 415 1100 24 186 -41 355 -165 427 -100 59 -147 69 -330 69
-189 0 -313 -18 -509 -75 -735 -210 -1431 -816 -1601 -1394 -35 -119 -44 -280
-21 -379 58 -248 292 -420 546 -403 185 12 410 138 410 228 0 27 -22 24 -83
-10 -82 -47 -198 -75 -283 -68 -209 16 -333 201 -295 443 62 403 476 916 991
1230 199 121 506 246 674 275 96 16 219 8 254 -18 154 -113 36 -490 -530
-1692 l-143 -304 -50 -18 c-247 -90 -345 -128 -434 -170 -540 -254 -854 -656
-792 -1015 39 -221 211 -364 441 -364 203 0 392 108 563 323 157 196 241 339
482 821 l190 379 384 144 c211 79 385 142 387 140 2 -2 -19 -60 -47 -128 -224
-540 -362 -1048 -346 -1274 20 -289 236 -431 468 -309 131 69 340 303 356 397
10 65 -15 52 -140 -75 -165 -168 -254 -212 -312 -154 -48 48 -42 170 21 416
62 246 258 792 434 1215 l83 200 100 65 c116 75 394 339 545 517 311 366 548
729 610 933 58 191 24 346 -90 410 -60 34 -198 39 -278 11z m230 -190 c15 -29
12 -118 -5 -186 -25 -95 -117 -272 -235 -447 -138 -208 -250 -348 -409 -511
-126 -130 -342 -329 -349 -322 -5 5 208 420 324 632 309 564 525 852 641 853
12 0 27 -9 33 -19z m-2969 -2613 c-239 -505 -447 -865 -560 -971 -28 -27 -70
-57 -94 -67 -87 -40 -184 -17 -249 59 -44 52 -62 114 -55 189 20 224 227 470
580 688 83 52 412 223 429 224 4 0 -19 -55 -51 -122z"/>
<path d="M8185 6965 c-83 -34 -174 -98 -301 -214 -170 -153 -278 -268 -999
-1061 l-250 -274 -7 184 c-20 545 -72 730 -215 769 -120 34 -354 -25 -408
-101 -24 -36 -18 -46 31 -54 136 -20 171 -138 224 -754 12 -129 27 -280 34
-335 l13 -100 -90 -105 c-443 -511 -874 -949 -1161 -1178 -443 -354 -894 -562
-1331 -613 -137 -16 -357 -6 -459 20 -163 43 -288 125 -366 240 -42 62 -75 75
-102 41 -56 -69 33 -258 170 -363 118 -91 280 -154 459 -178 141 -19 441 -6
588 25 163 34 278 68 409 122 550 225 1095 703 1835 1609 41 50 77 91 81 93 4
1 13 -26 19 -60 56 -289 213 -532 405 -627 102 -50 153 -62 281 -68 202 -9
368 38 555 155 120 76 244 184 332 288 144 169 295 424 305 516 5 40 2 50 -20
72 -14 14 -32 26 -40 26 -21 0 -59 -47 -116 -142 -227 -381 -584 -650 -882
-666 -129 -7 -186 13 -264 91 -111 111 -184 308 -219 592 -9 72 -18 144 -20
162 -4 29 10 46 178 225 614 650 1114 1070 1498 1258 67 33 131 70 142 83 38
46 -3 207 -72 281 -34 37 -97 66 -142 66 -19 0 -62 -12 -95 -25z"/>
</g>
</svg>
