<svg width="30" height="30" viewBox="0 0 30 30" fill="none" xmlns="http://www.w3.org/2000/svg">
<g id="Flag Area">
<g id="Group 3750">
<circle id="Ellipse 110" cx="15" cy="15" r="10.25" fill="#F5F6F7" stroke="#0A0F18" stroke-width="1.5"/>
<path id="Ellipse 111" d="M19.75 15C19.75 17.9464 19.1513 20.5767 18.2183 22.4428C17.2628 24.3536 16.0817 25.25 15 25.25C13.9183 25.25 12.7372 24.3536 11.7817 22.4428C10.8487 20.5767 10.25 17.9464 10.25 15C10.25 12.0536 10.8487 9.42325 11.7817 7.55724C12.7372 5.64636 13.9183 4.75 15 4.75C16.0817 4.75 17.2628 5.64636 18.2183 7.55724C19.1513 9.42325 19.75 12.0536 19.75 15Z" fill="#F5F6F7" stroke="#0A0F18" stroke-width="1.5"/>
<path id="Vector 472" d="M5.1001 11.7H24.9001" stroke="black" stroke-width="1.5"/>
<path id="Vector 473" d="M5.1001 18.3H24.9001" stroke="black" stroke-width="1.5"/>
</g>
</g>
</svg>
