<svg width="30" height="30" viewBox="0 0 30 30" fill="none" xmlns="http://www.w3.org/2000/svg"><title>commonfalsefooterfalseig</title><circle cx="15" cy="15" r="15" fill="#101828"></circle><path fill-rule="evenodd" clip-rule="evenodd" d="M20.9213 18.1377C20.9213 19.6723 19.6732 20.9212 18.1385 20.9212H11.8623C10.3276 20.9212 9.07879 19.6723 9.07879 18.1377V11.8622C9.07879 10.3275 10.3276 9.07867 11.8623 9.07867H18.1385C19.6732 9.07867 20.9213 10.3275 20.9213 11.8622V18.1377ZM18.1385 8.03564H11.8623C9.75746 8.03564 8.03577 9.75733 8.03577 11.8622V18.1377C8.03577 20.2418 9.75746 21.9642 11.8623 21.9642H18.1385C20.2427 21.9642 21.9643 20.2418 21.9643 18.1377V11.8622C21.9643 9.75733 20.2427 8.03564 18.1385 8.03564ZM15.0009 17.444C13.6531 17.444 12.5567 16.3477 12.5567 15.0003C12.5567 13.6521 13.6531 12.5566 15.0009 12.5566C16.3487 12.5566 17.4451 13.6521 17.4451 15.0003C17.4451 16.3477 16.3487 17.444 15.0009 17.444ZM15.0009 11.5178C13.0772 11.5178 11.5183 13.077 11.5183 15.0003C11.5183 16.9228 13.0772 18.4821 15.0009 18.4821C16.9246 18.4821 18.4835 16.9228 18.4835 15.0003C18.4835 13.077 16.9246 11.5178 15.0009 11.5178ZM17.787 10.9602C17.787 10.4992 18.1615 10.1249 18.6228 10.1249C19.0841 10.1249 19.4586 10.4992 19.4586 10.9602C19.4586 11.4221 19.0841 11.7964 18.6228 11.7964C18.1615 11.7964 17.787 11.4221 17.787 10.9602Z" fill="white"></path></svg>