<svg width="231" height="231" viewBox="0 0 231 231" fill="none" xmlns="http://www.w3.org/2000/svg">
<path fill-rule="evenodd" clip-rule="evenodd" d="M104.582 118.03C106.94 118.899 108.3 119.401 108.3 121.638C108.3 123.692 106.847 125.019 104.543 125.019C102.238 125.019 100.596 123.628 100.596 121.322V121.006H97.2503C97.2503 125.492 100.439 128.083 104.543 128.083C108.71 128.083 111.646 125.019 111.646 121.512C111.646 119.711 111.078 118.573 110.131 117.562C109.184 116.552 108.015 115.92 106.058 115.193L104.795 114.72C102.017 113.676 101.133 112.887 101.133 111.307C101.133 109.506 102.459 108.4 104.511 108.4C106.532 108.4 107.953 109.506 107.953 111.528V111.939H111.299C111.299 107.895 108.742 105.336 104.511 105.336C99.9018 105.336 97.7867 108.527 97.7867 111.37C97.7867 112.95 98.2919 114.087 99.1129 115.098C99.9332 116.11 101.07 116.71 102.743 117.342L104.259 117.91C104.368 117.951 104.476 117.991 104.582 118.03ZM67.6844 105.652L59.7286 118.51L51.8046 105.652H48.0479V127.767H51.2046V110.327L58.2763 121.796H61.1809L68.2843 110.327V127.767H71.4411V105.652H67.6844ZM90.2864 118.511V105.652H93.4752V118.478C93.4752 124.514 90.0339 128.083 84.8563 128.083C79.6791 128.083 76.238 124.514 76.238 118.478V105.652H79.4263V118.511C79.4263 122.523 81.5099 124.987 84.8563 124.987C88.203 124.987 90.2864 122.523 90.2864 118.511ZM115.665 127.767H118.886V105.652H115.665V127.767ZM126.936 127.767V110.644L138.427 127.767H141.963V105.652H138.806V122.87L127.283 105.652H123.779V127.767H126.936ZM156.789 121.638C156.789 119.401 155.43 118.899 153.072 118.03C152.966 117.991 152.858 117.951 152.748 117.91L151.233 117.342C149.56 116.71 148.423 116.11 147.602 115.098C146.781 114.087 146.276 112.95 146.276 111.37C146.276 108.527 148.392 105.336 153.001 105.336C157.231 105.336 159.788 107.895 159.788 111.939H156.442V111.528C156.442 109.506 155.021 108.4 153.001 108.4C150.949 108.4 149.623 109.506 149.623 111.307C149.623 112.887 150.507 113.676 153.285 114.72L154.548 115.193C156.505 115.92 157.673 116.552 158.62 117.562C159.567 118.573 160.135 119.711 160.135 121.512C160.135 125.019 157.199 128.083 153.033 128.083C148.928 128.083 145.74 125.492 145.74 121.006H149.086V121.322C149.086 123.628 150.728 125.019 153.033 125.019C155.337 125.019 156.789 123.692 156.789 121.638ZM177.206 121.606H167.357L164.863 127.767H161.611L170.545 105.652H174.018L182.952 127.767H179.7L177.206 121.606ZM172.281 109.443L168.619 118.479H175.943L172.281 109.443Z" fill="#D1D1D1"/>
</svg>
