<svg width="30" height="30" viewBox="0 0 30 30" fill="none" xmlns="http://www.w3.org/2000/svg"><title></title><path fill-rule="evenodd" clip-rule="evenodd" d="M10.9999 5C10.4476 5 9.99988 5.44772 9.99988 6V9H6.99988H6.06876L6.00242 9.92875L5.00242 23.9288L4.9259 25H5.99988H23.9999H25.0739L24.9973 23.9288L23.9973 9.92875L23.931 9H22.9999H19.9999V6C19.9999 5.44772 19.5522 5 18.9999 5H18.9816H18.9633H18.9451H18.9269H18.9087H18.8906H18.8725H18.8544H18.8364H18.8184H18.8004H18.7824H18.7645H18.7466H18.7288H18.7109H18.6931H18.6753H18.6576H18.6399H18.6222H18.6045H18.5869H18.5693H18.5517H18.5342H18.5167H18.4992H18.4817H18.4643H18.4469H18.4295H18.4122H18.3948H18.3775H18.3603H18.343H18.3258H18.3086H18.2915H18.2743H18.2572H18.2401H18.2231H18.2061H18.1891H18.1721H18.1551H18.1382H18.1213H18.1044H18.0876H18.0707H18.0539H18.0372H18.0204H18.0037H17.987H17.9703H17.9537H17.937H17.9204H17.9038H17.8873H17.8708H17.8542H17.8378H17.8213H17.8048H17.7884H17.772H17.7557H17.7393H17.723H17.7067H17.6904H17.6741H17.6579H17.6417H17.6255H17.6093H17.5931H17.577H17.5609H17.5448H17.5287H17.5127H17.4967H17.4807H17.4647H17.4487H17.4328H17.4168H17.4009H17.3851H17.3692H17.3533H17.3375H17.3217H17.3059H17.2902H17.2744H17.2587H17.243H17.2273H17.2116H17.1959H17.1803H17.1647H17.1491H17.1335H17.1179H17.1024H17.0869H17.0713H17.0558H17.0404H17.0249H17.0095H16.994H16.9786H16.9632H16.9478H16.9325H16.9171H16.9018H16.8865H16.8712H16.8559H16.8407H16.8254H16.8102H16.7949H16.7797H16.7645H16.7494H16.7342H16.7191H16.7039H16.6888H16.6737H16.6586H16.6435H16.6285H16.6134H16.5984H16.5834H16.5684H16.5534H16.5384H16.5234H16.5085H16.4935H16.4786H16.4637H16.4488H16.4339H16.419H16.4042H16.3893H16.3745H16.3596H16.3448H16.33H16.3152H16.3004H16.2856H16.2709H16.2561H16.2414H16.2266H16.2119H16.1972H16.1825H16.1678H16.1531H16.1384H16.1238H16.1091H16.0945H16.0799H16.0652H16.0506H16.036H16.0214H16.0068H15.9922H15.9777H15.9631H15.9485H15.934H15.9195H15.9049H15.8904H15.8759H15.8614H15.8469H15.8324H15.8179H15.8034H15.7889H15.7745H15.76H15.7456H15.7311H15.7167H15.7022H15.6878H15.6734H15.659H15.6446H15.6301H15.6157H15.6013H15.587H15.5726H15.5582H15.5438H15.5294H15.5151H15.5007H15.4864H15.472H15.4577H15.4433H15.429H15.4146H15.4003H15.386H15.3716H15.3573H15.343H15.3287H15.3144H15.3H15.2857H15.2714H15.2571H15.2428H15.2285H15.2142H15.1999H15.1856H15.1713H15.157H15.1427H15.1285H15.1142H15.0999H15.0856H15.0713H15.057H15.0427H15.0284H15.0142H14.9999H14.9856H14.9713H14.957H14.9427H14.9285H14.9142H14.8999H14.8856H14.8713H14.857H14.8427H14.8284H14.8141H14.7998H14.7855H14.7712H14.7569H14.7426H14.7283H14.714H14.6997H14.6854H14.6711H14.6568H14.6424H14.6281H14.6138H14.5995H14.5851H14.5708H14.5564H14.5421H14.5278H14.5134H14.499H14.4847H14.4703H14.4559H14.4416H14.4272H14.4128H14.3984H14.384H14.3696H14.3552H14.3408H14.3264H14.312H14.2975H14.2831H14.2687H14.2542H14.2398H14.2253H14.2108H14.1964H14.1819H14.1674H14.1529H14.1384H14.1239H14.1094H14.0948H14.0803H14.0658H14.0512H14.0367H14.0221H14.0075H13.9929H13.9784H13.9638H13.9491H13.9345H13.9199H13.9053H13.8906H13.876H13.8613H13.8466H13.832H13.8173H13.8026H13.7879H13.7731H13.7584H13.7437H13.7289H13.7141H13.6994H13.6846H13.6698H13.655H13.6401H13.6253H13.6105H13.5956H13.5807H13.5659H13.551H13.5361H13.5211H13.5062H13.4913H13.4763H13.4614H13.4464H13.4314H13.4164H13.4014H13.3863H13.3713H13.3562H13.3411H13.326H13.3109H13.2958H13.2807H13.2655H13.2504H13.2352H13.22H13.2048H13.1896H13.1744H13.1591H13.1438H13.1286H13.1133H13.0979H13.0826H13.0673H13.0519H13.0365H13.0211H13.0057H12.9903H12.9749H12.9594H12.9439H12.9284H12.9129H12.8974H12.8818H12.8663H12.8507H12.8351H12.8195H12.8038H12.7882H12.7725H12.7568H12.7411H12.7254H12.7096H12.6938H12.678H12.6622H12.6464H12.6306H12.6147H12.5988H12.5829H12.567H12.551H12.5351H12.5191H12.5031H12.4871H12.471H12.4549H12.4389H12.4227H12.4066H12.3905H12.3743H12.3581H12.3419H12.3256H12.3094H12.2931H12.2768H12.2605H12.2441H12.2277H12.2113H12.1949H12.1785H12.162H12.1455H12.129H12.1125H12.0959H12.0793H12.0627H12.0461H12.0294H12.0128H11.9961H11.9793H11.9626H11.9458H11.929H11.9122H11.8953H11.8785H11.8616H11.8446H11.8277H11.8107H11.7937H11.7767H11.7596H11.7425H11.7254H11.7083H11.6911H11.6739H11.6567H11.6395H11.6222H11.6049H11.5876H11.5703H11.5529H11.5355H11.518H11.5006H11.4831H11.4656H11.448H11.4305H11.4129H11.3952H11.3776H11.3599H11.3422H11.3244H11.3066H11.2888H11.271H11.2531H11.2352H11.2173H11.1994H11.1814H11.1634H11.1453H11.1273H11.1092H11.091H11.0729H11.0547H11.0364H11.0182H10.9999ZM17.9999 11V13H19.9999V11H22.0688L22.9259 23H7.07386L7.931 11H9.99988V13H11.9999V11H17.9999ZM17.9999 9V7H17.987H17.9703H17.9537H17.937H17.9204H17.9038H17.8873H17.8708H17.8542H17.8378H17.8213H17.8048H17.7884H17.772H17.7557H17.7393H17.723H17.7067H17.6904H17.6741H17.6579H17.6417H17.6255H17.6093H17.5931H17.577H17.5609H17.5448H17.5287H17.5127H17.4967H17.4807H17.4647H17.4487H17.4328H17.4168H17.4009H17.3851H17.3692H17.3533H17.3375H17.3217H17.3059H17.2902H17.2744H17.2587H17.243H17.2273H17.2116H17.1959H17.1803H17.1647H17.1491H17.1335H17.1179H17.1024H17.0869H17.0713H17.0558H17.0404H17.0249H17.0095H16.994H16.9786H16.9632H16.9478H16.9325H16.9171H16.9018H16.8865H16.8712H16.8559H16.8407H16.8254H16.8102H16.7949H16.7797H16.7645H16.7494H16.7342H16.7191H16.7039H16.6888H16.6737H16.6586H16.6435H16.6285H16.6134H16.5984H16.5834H16.5684H16.5534H16.5384H16.5234H16.5085H16.4935H16.4786H16.4637H16.4488H16.4339H16.419H16.4042H16.3893H16.3745H16.3596H16.3448H16.33H16.3152H16.3004H16.2856H16.2709H16.2561H16.2414H16.2266H16.2119H16.1972H16.1825H16.1678H16.1531H16.1384H16.1238H16.1091H16.0945H16.0799H16.0652H16.0506H16.036H16.0214H16.0068H15.9922H15.9777H15.9631H15.9485H15.934H15.9195H15.9049H15.8904H15.8759H15.8614H15.8469H15.8324H15.8179H15.8034H15.7889H15.7745H15.76H15.7456H15.7311H15.7167H15.7022H15.6878H15.6734H15.659H15.6446H15.6301H15.6157H15.6013H15.587H15.5726H15.5582H15.5438H15.5294H15.5151H15.5007H15.4864H15.472H15.4577H15.4433H15.429H15.4146H15.4003H15.386H15.3716H15.3573H15.343H15.3287H15.3144H15.3H15.2857H15.2714H15.2571H15.2428H15.2285H15.2142H15.1999H15.1856H15.1713H15.157H15.1427H15.1285H15.1142H15.0999H15.0856H15.0713H15.057H15.0427H15.0284H15.0142H14.9999H14.9856H14.9713H14.957H14.9427H14.9285H14.9142H14.8999H14.8856H14.8713H14.857H14.8427H14.8284H14.8141H14.7998H14.7855H14.7712H14.7569H14.7426H14.7283H14.714H14.6997H14.6854H14.6711H14.6568H14.6424H14.6281H14.6138H14.5995H14.5851H14.5708H14.5564H14.5421H14.5278H14.5134H14.499H14.4847H14.4703H14.4559H14.4416H14.4272H14.4128H14.3984H14.384H14.3696H14.3552H14.3408H14.3264H14.312H14.2975H14.2831H14.2687H14.2542H14.2398H14.2253H14.2108H14.1964H14.1819H14.1674H14.1529H14.1384H14.1239H14.1094H14.0948H14.0803H14.0658H14.0512H14.0367H14.0221H14.0075H13.9929H13.9784H13.9638H13.9491H13.9345H13.9199H13.9053H13.8906H13.876H13.8613H13.8466H13.832H13.8173H13.8026H13.7879H13.7731H13.7584H13.7437H13.7289H13.7141H13.6994H13.6846H13.6698H13.655H13.6401H13.6253H13.6105H13.5956H13.5807H13.5659H13.551H13.5361H13.5211H13.5062H13.4913H13.4763H13.4614H13.4464H13.4314H13.4164H13.4014H13.3863H13.3713H13.3562H13.3411H13.326H13.3109H13.2958H13.2807H13.2655H13.2504H13.2352H13.22H13.2048H13.1896H13.1744H13.1591H13.1438H13.1286H13.1133H13.0979H13.0826H13.0673H13.0519H13.0365H13.0211H13.0057H12.9903H12.9749H12.9594H12.9439H12.9284H12.9129H12.8974H12.8818H12.8663H12.8507H12.8351H12.8195H12.8038H12.7882H12.7725H12.7568H12.7411H12.7254H12.7096H12.6938H12.678H12.6622H12.6464H12.6306H12.6147H12.5988H12.5829H12.567H12.551H12.5351H12.5191H12.5031H12.4871H12.471H12.4549H12.4389H12.4227H12.4066H12.3905H12.3743H12.3581H12.3419H12.3256H12.3094H12.2931H12.2768H12.2605H12.2441H12.2277H12.2113H12.1949H12.1785H12.162H12.1455H12.129H12.1125H12.0959H12.0793H12.0627H12.0461H12.0294H12.0128H11.9999V9H17.9999Z" fill="#0A0F18"></path></svg>