<svg width="40" height="40" viewBox="0 0 40 40" fill="none" xmlns="http://www.w3.org/2000/svg"><title>Musinsa</title><rect width="40" height="40" rx="10" fill="black"></rect><path fill-rule="evenodd" clip-rule="evenodd" d="M17.3898 19.9696C17.9413 20.1729 18.2592 20.2901 18.2592 20.8136C18.2592 21.2937 17.9195 21.6045 17.3804 21.6045C16.8411 21.6045 16.457 21.279 16.457 20.7395V20.6658H15.6742C15.6742 21.7151 16.4202 22.3212 17.3804 22.3212C18.3552 22.3212 19.0421 21.6045 19.0421 20.7841C19.0421 20.3629 18.9091 20.0967 18.6876 19.8601C18.4659 19.6237 18.1928 19.476 17.7349 19.3057L17.4393 19.1953C16.7894 18.9514 16.5825 18.7662 16.5825 18.3969C16.5825 17.9756 16.8929 17.7169 17.3729 17.7169C17.8456 17.7169 18.1778 17.9756 18.1778 18.4484V18.5448H18.9609C18.9609 17.5986 18.3627 17 17.3729 17C16.2947 17 15.7997 17.7465 15.7997 18.4117C15.7997 18.7812 15.9179 19.047 16.11 19.2836C16.3019 19.5204 16.5678 19.6608 16.9593 19.8087L17.3138 19.9416L17.3898 19.9696ZM13.9671 20.0818V17.0738H14.7131V20.0744C14.7131 21.4861 13.908 22.3211 12.6968 22.3211C11.4855 22.3211 10.6804 21.4861 10.6804 20.0744V17.0738H11.4264V20.0818C11.4264 21.0204 11.9139 21.5969 12.6968 21.5969C13.4796 21.5969 13.9671 21.0204 13.9671 20.0818ZM8.59377 17.074L6.73247 20.082L4.87865 17.074H4V22.2472H4.73797V18.1677L6.39276 20.8504H7.07218L8.73407 18.1677V22.2472H9.47261V17.074H8.59377ZM20.061 22.2472H20.8143V17.0737H20.061V22.2472ZM22.7848 22.2473V18.2418L25.4733 22.2473H26.3005V17.0739H25.562V21.1017L22.8662 17.0739H22.0462V22.2473H22.7848ZM29.8463 20.8136C29.8463 20.2901 29.5284 20.1729 28.9766 19.9696L28.9007 19.9416L28.5464 19.8087C28.1549 19.6608 27.8891 19.5204 27.6971 19.2836C27.5048 19.047 27.3868 18.7812 27.3868 18.4117C27.3868 17.7465 27.8818 17 28.96 17C29.9498 17 30.548 17.5986 30.548 18.5448H29.7649V18.4484C29.7649 17.9756 29.4327 17.7169 28.96 17.7169C28.4798 17.7169 28.1697 17.9756 28.1697 18.3969C28.1697 18.7662 28.3765 18.9514 29.0264 19.1953L29.322 19.3057C29.7799 19.476 30.053 19.6237 30.2747 19.8601C30.4962 20.0967 30.6292 20.3629 30.6292 20.7841C30.6292 21.6045 29.9423 22.3212 28.9675 22.3212C28.0073 22.3212 27.2613 21.7151 27.2613 20.6658H28.0441V20.7395C28.0441 21.279 28.4282 21.6045 28.9675 21.6045C29.5066 21.6045 29.8463 21.2937 29.8463 20.8136ZM34.6557 20.8061H32.3515L31.768 22.2472H31.0072L33.0973 17.0741H33.9099L36 22.2472H35.2392L34.6557 20.8061ZM33.5036 17.9608L32.6468 20.0744H34.3604L33.5036 17.9608Z" fill="white"></path></svg>